<?xml version="1.0" standalone="no"?>
<!DOCTYPE svg PUBLIC "-//W3C//DTD SVG 20010904//EN"
 "http://www.w3.org/TR/2001/REC-SVG-20010904/DTD/svg10.dtd">
<svg version="1.0" xmlns="http://www.w3.org/2000/svg"
 width="816.000000pt" height="240.000000pt" viewBox="0 0 816.000000 240.000000"
 preserveAspectRatio="xMidYMid meet">

<g transform="translate(0.000000,240.000000) scale(0.100000,-0.100000)"
fill="#000000" stroke="none">
<path d="M0 1200 l0 -1200 4080 0 4080 0 0 1200 0 1200 -4080 0 -4080 0 0
-1200z m630 535 l0 -125 120 0 c100 0 120 -2 120 -15 0 -8 7 -15 15 -15 9 0
15 -9 15 -25 0 -16 -6 -25 -15 -25 -11 0 -15 -11 -15 -40 0 -29 4 -40 15 -40
9 0 15 -9 15 -25 0 -16 -6 -25 -15 -25 -9 0 -15 -9 -15 -25 0 -21 5 -25 30
-25 20 0 30 5 30 15 0 8 7 15 15 15 8 0 15 -7 15 -15 0 -11 12 -15 50 -15 38
0 50 4 50 15 0 8 7 15 15 15 8 0 15 -7 15 -15 0 -8 5 -15 10 -15 6 0 10 -7 10
-15 0 -8 7 -15 15 -15 9 0 15 -9 15 -25 0 -16 -6 -25 -15 -25 -10 0 -15 -11
-15 -35 0 -24 5 -35 15 -35 10 0 15 -10 15 -30 0 -20 -5 -30 -15 -30 -10 0
-15 -11 -15 -35 0 -24 5 -35 15 -35 9 0 15 -9 15 -25 0 -16 -6 -25 -15 -25
-11 0 -15 -11 -15 -40 0 -29 4 -40 15 -40 9 0 15 -9 15 -25 0 -16 -6 -25 -15
-25 -11 0 -15 -11 -15 -40 0 -29 4 -40 15 -40 9 0 15 -9 15 -25 0 -16 -6 -25
-15 -25 -10 0 -15 -11 -15 -35 0 -24 5 -35 15 -35 10 0 15 -10 15 -30 0 -20
-5 -30 -15 -30 -9 0 -15 -9 -15 -25 l0 -25 -120 0 -120 0 0 385 0 385 -120 0
-120 0 0 125 0 125 -120 0 -120 0 0 130 0 130 120 0 120 0 0 -125z m960 -5 l0
-130 -120 0 -120 0 0 -125 0 -125 -120 0 -120 0 0 130 0 130 120 0 120 0 0
125 0 125 120 0 120 0 0 -130z m720 5 l0 -125 120 0 120 0 0 -515 0 -515 -120
0 -120 0 0 255 0 255 -120 0 -120 0 0 -140 c0 -118 2 -140 15 -140 9 0 15 -9
15 -25 0 -16 -6 -25 -15 -25 -10 0 -15 -11 -15 -35 0 -24 5 -35 15 -35 10 0
15 -10 15 -30 0 -20 -5 -30 -15 -30 -9 0 -15 -9 -15 -25 l0 -25 -120 0 -120 0
0 515 0 515 120 0 120 0 0 125 0 125 120 0 120 0 0 -125z m720 0 l0 -125 120
0 c100 0 120 -2 120 -15 0 -8 7 -15 15 -15 9 0 15 -9 15 -25 0 -16 -6 -25 -15
-25 -11 0 -15 -11 -15 -40 0 -29 4 -40 15 -40 9 0 15 -9 15 -25 0 -16 -6 -25
-15 -25 -9 0 -15 -9 -15 -25 0 -21 5 -25 30 -25 20 0 30 5 30 15 0 8 7 15 15
15 8 0 15 -7 15 -15 0 -11 12 -15 50 -15 38 0 50 4 50 15 0 8 7 15 15 15 8 0
15 -7 15 -15 0 -8 5 -15 10 -15 6 0 10 -7 10 -15 0 -8 7 -15 15 -15 9 0 15 -9
15 -25 0 -16 -6 -25 -15 -25 -10 0 -15 -11 -15 -35 0 -24 5 -35 15 -35 10 0
15 -10 15 -30 0 -20 -5 -30 -15 -30 -10 0 -15 -11 -15 -35 0 -24 5 -35 15 -35
9 0 15 -9 15 -25 0 -16 -6 -25 -15 -25 -11 0 -15 -11 -15 -40 0 -29 4 -40 15
-40 9 0 15 -9 15 -25 0 -16 -6 -25 -15 -25 -9 0 -15 -9 -15 -25 l0 -25 -120 0
-120 0 0 255 0 255 -120 0 c-100 0 -120 -2 -120 -15 0 -8 7 -15 15 -15 9 0 15
-9 15 -25 0 -16 -6 -25 -15 -25 -10 0 -15 -11 -15 -35 0 -24 5 -35 15 -35 10
0 15 -10 15 -30 0 -20 -5 -30 -15 -30 -10 0 -15 -11 -15 -35 0 -24 5 -35 15
-35 9 0 15 -9 15 -25 0 -16 -6 -25 -15 -25 -11 0 -15 -11 -15 -40 0 -29 4 -40
15 -40 9 0 15 -9 15 -25 0 -16 -6 -25 -15 -25 -11 0 -15 -11 -15 -40 0 -29 4
-40 15 -40 9 0 15 -9 15 -25 0 -16 -6 -25 -15 -25 -10 0 -15 -11 -15 -35 0
-24 5 -35 15 -35 10 0 15 -10 15 -30 0 -20 -5 -30 -15 -30 -9 0 -15 -9 -15
-25 l0 -25 -120 0 -120 0 0 640 0 640 120 0 120 0 0 -125z m960 -515 l0 -640
-120 0 -120 0 0 385 0 385 -120 0 -120 0 0 130 0 130 120 0 120 0 0 125 0 125
120 0 120 0 0 -640z m480 625 c0 -8 7 -15 15 -15 9 0 15 -9 15 -25 0 -16 -6
-25 -15 -25 -10 0 -15 -11 -15 -35 0 -24 5 -35 15 -35 10 0 15 -10 15 -30 0
-20 -5 -30 -15 -30 -10 0 -15 -11 -15 -35 0 -24 5 -35 15 -35 9 0 15 -9 15
-25 0 -16 -6 -25 -15 -25 -11 0 -15 -11 -15 -40 0 -29 4 -40 15 -40 9 0 15 -9
15 -25 0 -16 -6 -25 -15 -25 -11 0 -15 -11 -15 -40 0 -29 4 -40 15 -40 9 0 15
-9 15 -25 0 -16 -6 -25 -15 -25 -10 0 -15 -11 -15 -35 0 -24 5 -35 15 -35 10
0 15 -10 15 -30 0 -20 -5 -30 -15 -30 -10 0 -15 -11 -15 -35 0 -24 5 -35 15
-35 9 0 15 -9 15 -25 0 -16 -6 -25 -15 -25 -11 0 -15 -11 -15 -40 0 -29 4 -40
15 -40 9 0 15 -9 15 -25 0 -16 -6 -25 -15 -25 -9 0 -15 -9 -15 -25 0 -21 5
-25 30 -25 20 0 30 5 30 15 0 8 7 15 15 15 8 0 15 -7 15 -15 0 -11 12 -15 50
-15 38 0 50 4 50 15 0 8 7 15 15 15 8 0 15 -7 15 -15 0 -8 5 -15 10 -15 6 0
10 50 10 130 l0 130 120 0 120 0 0 -260 0 -260 -360 0 -360 0 0 640 0 640 120
0 c100 0 120 -2 120 -15z m2160 -110 l0 -125 120 0 120 0 0 -385 0 -385 -120
0 -120 0 0 380 0 380 -120 0 -120 0 0 -140 c0 -118 2 -140 15 -140 9 0 15 -9
15 -25 0 -16 -6 -25 -15 -25 -10 0 -15 -11 -15 -35 0 -24 5 -35 15 -35 10 0
15 -10 15 -30 0 -20 -5 -30 -15 -30 -10 0 -15 -11 -15 -35 0 -24 5 -35 15 -35
9 0 15 -9 15 -25 0 -16 -6 -25 -15 -25 -11 0 -15 -11 -15 -40 0 -29 4 -40 15
-40 9 0 15 -9 15 -25 0 -16 -6 -25 -15 -25 -9 0 -15 -9 -15 -25 0 -21 5 -25
30 -25 20 0 30 5 30 15 0 8 7 15 15 15 8 0 15 -7 15 -15 0 -11 12 -15 50 -15
38 0 50 4 50 15 0 8 7 15 15 15 8 0 15 -7 15 -15 0 -8 5 -15 10 -15 6 0 10 -7
10 -15 0 -8 7 -15 15 -15 9 0 15 -9 15 -25 0 -16 -6 -25 -15 -25 -10 0 -15
-11 -15 -35 0 -24 5 -35 15 -35 10 0 15 -10 15 -30 0 -20 -5 -30 -15 -30 -9 0
-15 -9 -15 -25 l0 -25 -240 0 -240 0 0 640 0 640 240 0 240 0 0 -125z m960 0
l0 -125 120 0 120 0 0 -385 0 -385 -120 0 -120 0 0 125 0 125 -120 0 -120 0 0
-125 0 -125 120 0 c100 0 120 -2 120 -15 0 -8 7 -15 15 -15 9 0 15 -9 15 -25
0 -16 -6 -25 -15 -25 -10 0 -15 -11 -15 -35 0 -24 5 -35 15 -35 10 0 15 -10
15 -30 0 -20 -5 -30 -15 -30 -9 0 -15 -9 -15 -25 l0 -25 -240 0 -240 0 0 640
0 640 240 0 240 0 0 -125z m-6690 70 c0 -16 -6 -25 -15 -25 -9 0 -15 9 -15 25
0 16 6 25 15 25 9 0 15 -9 15 -25z m130 7 c0 -24 -8 -32 -26 -25 -22 8 -17 43
6 43 13 0 20 -7 20 -18z m2270 -7 c0 -16 -6 -25 -15 -25 -9 0 -15 9 -15 25 0
16 6 25 15 25 9 0 15 -9 15 -25z m130 7 c0 -24 -8 -32 -26 -25 -22 8 -17 43 6
43 13 0 20 -7 20 -18z m1200 0 c0 -24 -8 -32 -26 -25 -22 8 -17 43 6 43 13 0
20 -7 20 -18z m110 -7 c0 -16 -6 -25 -15 -25 -9 0 -15 9 -15 25 0 16 6 25 15
25 9 0 15 -9 15 -25z m130 7 c0 -24 -8 -32 -26 -25 -22 8 -17 43 6 43 13 0 20
-7 20 -18z m-3910 -67 c0 -16 -6 -25 -15 -25 -9 0 -15 9 -15 25 0 16 6 25 15
25 9 0 15 -9 15 -25z m130 -1 c0 -31 -23 -28 -28 4 -2 15 2 22 12 22 11 0 16
-9 16 -26z m2270 1 c0 -16 -6 -25 -15 -25 -9 0 -15 9 -15 25 0 16 6 25 15 25
9 0 15 -9 15 -25z m130 -1 c0 -31 -23 -28 -28 4 -2 15 2 22 12 22 11 0 16 -9
16 -26z m1070 1 c0 -16 -6 -25 -15 -25 -9 0 -15 9 -15 25 0 16 6 25 15 25 9 0
15 -9 15 -25z m130 -1 c0 -31 -23 -28 -28 4 -2 15 2 22 12 22 11 0 16 -9 16
-26z m110 1 c0 -16 -6 -25 -15 -25 -9 0 -15 9 -15 25 0 16 6 25 15 25 9 0 15
-9 15 -25z m130 -1 c0 -31 -23 -28 -28 4 -2 15 2 22 12 22 11 0 16 -9 16 -26z
m-4030 -64 c0 -20 -5 -30 -15 -30 -10 0 -15 10 -15 30 0 20 5 30 15 30 10 0
15 -10 15 -30z m122 -16 c-8 -14 -10 -14 -21 0 -11 13 -11 19 0 32 11 14 13
14 21 0 5 -9 5 -23 0 -32z m2278 16 c0 -20 -5 -30 -15 -30 -10 0 -15 10 -15
30 0 20 5 30 15 30 10 0 15 -10 15 -30z m122 -16 c-8 -14 -10 -14 -21 0 -11
13 -11 19 0 32 11 14 13 14 21 0 5 -9 5 -23 0 -32z m1200 0 c-8 -14 -10 -14
-21 0 -11 13 -11 19 0 32 11 14 13 14 21 0 5 -9 5 -23 0 -32z m118 16 c0 -20
-5 -30 -15 -30 -10 0 -15 10 -15 30 0 20 5 30 15 30 10 0 15 -10 15 -30z m122
-16 c-8 -14 -10 -14 -21 0 -11 13 -11 19 0 32 11 14 13 14 21 0 5 -9 5 -23 0
-32z m-3902 -49 c0 -16 -6 -25 -15 -25 -9 0 -15 9 -15 25 0 16 6 25 15 25 9 0
15 -9 15 -25z m130 0 c0 -16 -6 -25 -15 -25 -15 0 -21 31 -8 43 13 14 23 6 23
-18z m2270 0 c0 -16 -6 -25 -15 -25 -9 0 -15 9 -15 25 0 16 6 25 15 25 9 0 15
-9 15 -25z m130 0 c0 -16 -6 -25 -15 -25 -15 0 -21 31 -8 43 13 14 23 6 23
-18z m1070 0 c0 -16 -6 -25 -15 -25 -9 0 -15 9 -15 25 0 16 6 25 15 25 9 0 15
-9 15 -25z m130 0 c0 -16 -6 -25 -15 -25 -15 0 -21 31 -8 43 13 14 23 6 23
-18z m110 0 c0 -16 -6 -25 -15 -25 -9 0 -15 9 -15 25 0 16 6 25 15 25 9 0 15
-9 15 -25z m130 0 c0 -16 -6 -25 -15 -25 -15 0 -21 31 -8 43 13 14 23 6 23
-18z m-3900 -66 c0 -12 -7 -19 -20 -19 -22 0 -29 35 -7 43 18 6 27 -2 27 -24z
m2400 0 c0 -12 -7 -19 -20 -19 -22 0 -29 35 -7 43 18 6 27 -2 27 -24z m1200 0
c0 -12 -7 -19 -20 -19 -22 0 -29 35 -7 43 18 6 27 -2 27 -24z m110 6 c0 -16
-6 -25 -15 -25 -9 0 -15 9 -15 25 0 16 6 25 15 25 9 0 15 -9 15 -25z m130 -6
c0 -12 -7 -19 -20 -19 -22 0 -29 35 -7 43 18 6 27 -2 27 -24z m-3910 -59 c0
-11 -7 -20 -15 -20 -8 0 -15 9 -15 20 0 11 7 20 15 20 8 0 15 -9 15 -20z m130
0 c0 -11 -7 -20 -15 -20 -8 0 -15 9 -15 20 0 11 7 20 15 20 8 0 15 -9 15 -20z
m2270 0 c0 -11 -7 -20 -15 -20 -8 0 -15 9 -15 20 0 11 7 20 15 20 8 0 15 -9
15 -20z m130 0 c0 -11 -7 -20 -15 -20 -8 0 -15 9 -15 20 0 11 7 20 15 20 8 0
15 -9 15 -20z m1070 0 c0 -11 -7 -20 -15 -20 -8 0 -15 9 -15 20 0 11 7 20 15
20 8 0 15 -9 15 -20z m130 0 c0 -11 -7 -20 -15 -20 -8 0 -15 9 -15 20 0 11 7
20 15 20 8 0 15 -9 15 -20z m110 0 c0 -11 -7 -20 -15 -20 -8 0 -15 9 -15 20 0
11 7 20 15 20 8 0 15 -9 15 -20z m130 0 c0 -11 -7 -20 -15 -20 -8 0 -15 9 -15
20 0 11 7 20 15 20 8 0 15 -9 15 -20z m-3903 -74 c-4 -9 -13 -13 -22 -10 -18
7 -20 31 -2 37 17 6 31 -9 24 -27z m2400 0 c-4 -9 -13 -13 -22 -10 -18 7 -20
31 -2 37 17 6 31 -9 24 -27z m1200 0 c-4 -9 -13 -13 -22 -10 -18 7 -20 31 -2
37 17 6 31 -9 24 -27z m113 9 c0 -16 -6 -25 -15 -25 -9 0 -15 9 -15 25 0 16 6
25 15 25 9 0 15 -9 15 -25z m127 -9 c-4 -9 -13 -13 -22 -10 -18 7 -20 31 -2
37 17 6 31 -9 24 -27z m-307 -56 c0 -11 -7 -20 -15 -20 -8 0 -15 9 -15 20 0
11 7 20 15 20 8 0 15 -9 15 -20z m130 0 c0 -11 -7 -20 -15 -20 -8 0 -15 9 -15
20 0 11 7 20 15 20 8 0 15 -9 15 -20z m110 0 c0 -11 -7 -20 -15 -20 -8 0 -15
9 -15 20 0 11 7 20 15 20 8 0 15 -9 15 -20z m130 0 c0 -11 -7 -20 -15 -20 -8
0 -15 9 -15 20 0 11 7 20 15 20 8 0 15 -9 15 -20z m-4510 -65 c0 -16 -6 -25
-15 -25 -9 0 -15 9 -15 25 0 16 6 25 15 25 9 0 15 -9 15 -25z m130 7 c0 -24
-8 -32 -26 -25 -22 8 -17 43 6 43 13 0 20 -7 20 -18z m110 -7 c0 -16 -6 -25
-15 -25 -9 0 -15 9 -15 25 0 16 6 25 15 25 9 0 15 -9 15 -25z m130 7 c0 -24
-8 -32 -26 -25 -22 8 -17 43 6 43 13 0 20 -7 20 -18z m480 0 c0 -24 -8 -32
-26 -25 -22 8 -17 43 6 43 13 0 20 -7 20 -18z m110 -7 c0 -16 -6 -25 -15 -25
-9 0 -15 9 -15 25 0 16 6 25 15 25 9 0 15 -9 15 -25z m130 7 c0 -24 -8 -32
-26 -25 -22 8 -17 43 6 43 13 0 20 -7 20 -18z m1680 0 c0 -24 -8 -32 -26 -25
-22 8 -17 43 6 43 13 0 20 -7 20 -18z m480 0 c0 -24 -8 -32 -26 -25 -22 8 -17
43 6 43 13 0 20 -7 20 -18z m960 0 c0 -24 -8 -32 -26 -25 -22 8 -17 43 6 43
13 0 20 -7 20 -18z m1920 0 c0 -24 -8 -32 -26 -25 -22 8 -17 43 6 43 13 0 20
-7 20 -18z m-6070 -67 c0 -16 -6 -25 -15 -25 -9 0 -15 9 -15 25 0 16 6 25 15
25 9 0 15 -9 15 -25z m130 -1 c0 -31 -23 -28 -28 4 -2 15 2 22 12 22 11 0 16
-9 16 -26z m110 1 c0 -16 -6 -25 -15 -25 -9 0 -15 9 -15 25 0 16 6 25 15 25 9
0 15 -9 15 -25z m130 -1 c0 -31 -23 -28 -28 4 -2 15 2 22 12 22 11 0 16 -9 16
-26z m350 1 c0 -16 -6 -25 -15 -25 -9 0 -15 9 -15 25 0 16 6 25 15 25 9 0 15
-9 15 -25z m130 -1 c0 -31 -23 -28 -28 4 -2 15 2 22 12 22 11 0 16 -9 16 -26z
m110 1 c0 -16 -6 -25 -15 -25 -9 0 -15 9 -15 25 0 16 6 25 15 25 9 0 15 -9 15
-25z m130 -1 c0 -31 -23 -28 -28 4 -2 15 2 22 12 22 11 0 16 -9 16 -26z m1550
1 c0 -16 -6 -25 -15 -25 -9 0 -15 9 -15 25 0 16 6 25 15 25 9 0 15 -9 15 -25z
m130 -1 c0 -31 -23 -28 -28 4 -2 15 2 22 12 22 11 0 16 -9 16 -26z m350 1 c0
-16 -6 -25 -15 -25 -9 0 -15 9 -15 25 0 16 6 25 15 25 9 0 15 -9 15 -25z m130
-1 c0 -31 -23 -28 -28 4 -2 15 2 22 12 22 11 0 16 -9 16 -26z m830 1 c0 -16
-6 -25 -15 -25 -9 0 -15 9 -15 25 0 16 6 25 15 25 9 0 15 -9 15 -25z m130 -1
c0 -31 -23 -28 -28 4 -2 15 2 22 12 22 11 0 16 -9 16 -26z m1790 1 c0 -16 -6
-25 -15 -25 -9 0 -15 9 -15 25 0 16 6 25 15 25 9 0 15 -9 15 -25z m130 -1 c0
-31 -23 -28 -28 4 -2 15 2 22 12 22 11 0 16 -9 16 -26z m-6190 -64 c0 -20 -5
-30 -15 -30 -10 0 -15 10 -15 30 0 20 5 30 15 30 10 0 15 -10 15 -30z m122
-16 c-8 -14 -10 -14 -21 0 -11 13 -11 19 0 32 11 14 13 14 21 0 5 -9 5 -23 0
-32z m118 16 c0 -20 -5 -30 -15 -30 -10 0 -15 10 -15 30 0 20 5 30 15 30 10 0
15 -10 15 -30z m122 -16 c-8 -14 -10 -14 -21 0 -11 13 -11 19 0 32 11 14 13
14 21 0 5 -9 5 -23 0 -32z m480 0 c-8 -14 -10 -14 -21 0 -11 13 -11 19 0 32
11 14 13 14 21 0 5 -9 5 -23 0 -32z m118 16 c0 -20 -5 -30 -15 -30 -10 0 -15
10 -15 30 0 20 5 30 15 30 10 0 15 -10 15 -30z m122 -16 c-8 -14 -10 -14 -21
0 -11 13 -11 19 0 32 11 14 13 14 21 0 5 -9 5 -23 0 -32z m1680 0 c-8 -14 -10
-14 -21 0 -11 13 -11 19 0 32 11 14 13 14 21 0 5 -9 5 -23 0 -32z m480 0 c-8
-14 -10 -14 -21 0 -11 13 -11 19 0 32 11 14 13 14 21 0 5 -9 5 -23 0 -32z
m960 0 c-8 -14 -10 -14 -21 0 -11 13 -11 19 0 32 11 14 13 14 21 0 5 -9 5 -23
0 -32z m1920 0 c-8 -14 -10 -14 -21 0 -11 13 -11 19 0 32 11 14 13 14 21 0 5
-9 5 -23 0 -32z m-6062 -49 c0 -16 -6 -25 -15 -25 -9 0 -15 9 -15 25 0 16 6
25 15 25 9 0 15 -9 15 -25z m130 0 c0 -16 -6 -25 -15 -25 -15 0 -21 31 -8 43
13 14 23 6 23 -18z m110 0 c0 -16 -6 -25 -15 -25 -9 0 -15 9 -15 25 0 16 6 25
15 25 9 0 15 -9 15 -25z m130 0 c0 -16 -6 -25 -15 -25 -15 0 -21 31 -8 43 13
14 23 6 23 -18z m350 0 c0 -16 -6 -25 -15 -25 -9 0 -15 9 -15 25 0 16 6 25 15
25 9 0 15 -9 15 -25z m130 0 c0 -16 -6 -25 -15 -25 -15 0 -21 31 -8 43 13 14
23 6 23 -18z m110 0 c0 -16 -6 -25 -15 -25 -9 0 -15 9 -15 25 0 16 6 25 15 25
9 0 15 -9 15 -25z m130 0 c0 -16 -6 -25 -15 -25 -15 0 -21 31 -8 43 13 14 23
6 23 -18z m1550 0 c0 -16 -6 -25 -15 -25 -9 0 -15 9 -15 25 0 16 6 25 15 25 9
0 15 -9 15 -25z m130 0 c0 -16 -6 -25 -15 -25 -15 0 -21 31 -8 43 13 14 23 6
23 -18z m350 0 c0 -16 -6 -25 -15 -25 -9 0 -15 9 -15 25 0 16 6 25 15 25 9 0
15 -9 15 -25z m130 0 c0 -16 -6 -25 -15 -25 -15 0 -21 31 -8 43 13 14 23 6 23
-18z m830 0 c0 -16 -6 -25 -15 -25 -9 0 -15 9 -15 25 0 16 6 25 15 25 9 0 15
-9 15 -25z m130 0 c0 -16 -6 -25 -15 -25 -15 0 -21 31 -8 43 13 14 23 6 23
-18z m1790 0 c0 -16 -6 -25 -15 -25 -9 0 -15 9 -15 25 0 16 6 25 15 25 9 0 15
-9 15 -25z m130 0 c0 -16 -6 -25 -15 -25 -15 0 -21 31 -8 43 13 14 23 6 23
-18z m-6190 -60 c0 -16 -6 -25 -15 -25 -9 0 -15 9 -15 25 0 16 6 25 15 25 9 0
15 -9 15 -25z m130 -6 c0 -12 -7 -19 -20 -19 -22 0 -29 35 -7 43 18 6 27 -2
27 -24z m110 6 c0 -16 -6 -25 -15 -25 -9 0 -15 9 -15 25 0 16 6 25 15 25 9 0
15 -9 15 -25z m130 -6 c0 -12 -7 -19 -20 -19 -22 0 -29 35 -7 43 18 6 27 -2
27 -24z m480 0 c0 -12 -7 -19 -20 -19 -22 0 -29 35 -7 43 18 6 27 -2 27 -24z
m110 6 c0 -16 -6 -25 -15 -25 -9 0 -15 9 -15 25 0 16 6 25 15 25 9 0 15 -9 15
-25z m130 -6 c0 -12 -7 -19 -20 -19 -22 0 -29 35 -7 43 18 6 27 -2 27 -24z
m1680 0 c0 -12 -7 -19 -20 -19 -22 0 -29 35 -7 43 18 6 27 -2 27 -24z m480 0
c0 -12 -7 -19 -20 -19 -22 0 -29 35 -7 43 18 6 27 -2 27 -24z m960 0 c0 -12
-7 -19 -20 -19 -22 0 -29 35 -7 43 18 6 27 -2 27 -24z m1920 0 c0 -12 -7 -19
-20 -19 -22 0 -29 35 -7 43 18 6 27 -2 27 -24z m-6070 -59 c0 -11 -7 -20 -15
-20 -8 0 -15 9 -15 20 0 11 7 20 15 20 8 0 15 -9 15 -20z m130 0 c0 -11 -7
-20 -15 -20 -8 0 -15 9 -15 20 0 11 7 20 15 20 8 0 15 -9 15 -20z m110 0 c0
-11 -7 -20 -15 -20 -8 0 -15 9 -15 20 0 11 7 20 15 20 8 0 15 -9 15 -20z m130
0 c0 -11 -7 -20 -15 -20 -8 0 -15 9 -15 20 0 11 7 20 15 20 8 0 15 -9 15 -20z
m350 0 c0 -11 -7 -20 -15 -20 -8 0 -15 9 -15 20 0 11 7 20 15 20 8 0 15 -9 15
-20z m130 0 c0 -11 -7 -20 -15 -20 -8 0 -15 9 -15 20 0 11 7 20 15 20 8 0 15
-9 15 -20z m110 0 c0 -11 -7 -20 -15 -20 -8 0 -15 9 -15 20 0 11 7 20 15 20 8
0 15 -9 15 -20z m130 0 c0 -11 -7 -20 -15 -20 -8 0 -15 9 -15 20 0 11 7 20 15
20 8 0 15 -9 15 -20z m1550 0 c0 -11 -7 -20 -15 -20 -8 0 -15 9 -15 20 0 11 7
20 15 20 8 0 15 -9 15 -20z m130 0 c0 -11 -7 -20 -15 -20 -8 0 -15 9 -15 20 0
11 7 20 15 20 8 0 15 -9 15 -20z m350 0 c0 -11 -7 -20 -15 -20 -8 0 -15 9 -15
20 0 11 7 20 15 20 8 0 15 -9 15 -20z m130 0 c0 -11 -7 -20 -15 -20 -8 0 -15
9 -15 20 0 11 7 20 15 20 8 0 15 -9 15 -20z m830 0 c0 -11 -7 -20 -15 -20 -8
0 -15 9 -15 20 0 11 7 20 15 20 8 0 15 -9 15 -20z m130 0 c0 -11 -7 -20 -15
-20 -8 0 -15 9 -15 20 0 11 7 20 15 20 8 0 15 -9 15 -20z m1790 0 c0 -11 -7
-20 -15 -20 -8 0 -15 9 -15 20 0 11 7 20 15 20 8 0 15 -9 15 -20z m130 0 c0
-11 -7 -20 -15 -20 -8 0 -15 9 -15 20 0 11 7 20 15 20 8 0 15 -9 15 -20z
m-6190 -65 c0 -16 -6 -25 -15 -25 -9 0 -15 9 -15 25 0 16 6 25 15 25 9 0 15
-9 15 -25z m127 -9 c-4 -9 -13 -13 -22 -10 -18 7 -20 31 -2 37 17 6 31 -9 24
-27z m113 9 c0 -16 -6 -25 -15 -25 -9 0 -15 9 -15 25 0 16 6 25 15 25 9 0 15
-9 15 -25z m127 -9 c-4 -9 -13 -13 -22 -10 -18 7 -20 31 -2 37 17 6 31 -9 24
-27z m480 0 c-4 -9 -13 -13 -22 -10 -18 7 -20 31 -2 37 17 6 31 -9 24 -27z
m113 9 c0 -16 -6 -25 -15 -25 -9 0 -15 9 -15 25 0 16 6 25 15 25 9 0 15 -9 15
-25z m127 -9 c-4 -9 -13 -13 -22 -10 -18 7 -20 31 -2 37 17 6 31 -9 24 -27z
m1680 0 c-4 -9 -13 -13 -22 -10 -18 7 -20 31 -2 37 17 6 31 -9 24 -27z m480 0
c-4 -9 -13 -13 -22 -10 -18 7 -20 31 -2 37 17 6 31 -9 24 -27z m960 0 c-4 -9
-13 -13 -22 -10 -18 7 -20 31 -2 37 17 6 31 -9 24 -27z m1920 0 c-4 -9 -13
-13 -22 -10 -18 7 -20 31 -2 37 17 6 31 -9 24 -27z m-6067 -56 c0 -11 -7 -20
-15 -20 -8 0 -15 9 -15 20 0 11 7 20 15 20 8 0 15 -9 15 -20z m130 0 c0 -11
-7 -20 -15 -20 -8 0 -15 9 -15 20 0 11 7 20 15 20 8 0 15 -9 15 -20z m110 0
c0 -11 -7 -20 -15 -20 -8 0 -15 9 -15 20 0 11 7 20 15 20 8 0 15 -9 15 -20z
m130 0 c0 -11 -7 -20 -15 -20 -8 0 -15 9 -15 20 0 11 7 20 15 20 8 0 15 -9 15
-20z m350 0 c0 -11 -7 -20 -15 -20 -8 0 -15 9 -15 20 0 11 7 20 15 20 8 0 15
-9 15 -20z m130 0 c0 -11 -7 -20 -15 -20 -8 0 -15 9 -15 20 0 11 7 20 15 20 8
0 15 -9 15 -20z m110 0 c0 -11 -7 -20 -15 -20 -8 0 -15 9 -15 20 0 11 7 20 15
20 8 0 15 -9 15 -20z m130 0 c0 -11 -7 -20 -15 -20 -8 0 -15 9 -15 20 0 11 7
20 15 20 8 0 15 -9 15 -20z m1550 0 c0 -11 -7 -20 -15 -20 -8 0 -15 9 -15 20
0 11 7 20 15 20 8 0 15 -9 15 -20z m130 0 c0 -11 -7 -20 -15 -20 -8 0 -15 9
-15 20 0 11 7 20 15 20 8 0 15 -9 15 -20z m350 0 c0 -11 -7 -20 -15 -20 -8 0
-15 9 -15 20 0 11 7 20 15 20 8 0 15 -9 15 -20z m130 0 c0 -11 -7 -20 -15 -20
-8 0 -15 9 -15 20 0 11 7 20 15 20 8 0 15 -9 15 -20z m-3310 -65 c0 -16 -6
-25 -15 -25 -9 0 -15 9 -15 25 0 16 6 25 15 25 9 0 15 -9 15 -25z m130 7 c0
-24 -8 -32 -26 -25 -22 8 -17 43 6 43 13 0 20 -7 20 -18z m110 -7 c0 -16 -6
-25 -15 -25 -9 0 -15 9 -15 25 0 16 6 25 15 25 9 0 15 -9 15 -25z m130 7 c0
-24 -8 -32 -26 -25 -22 8 -17 43 6 43 13 0 20 -7 20 -18z m480 0 c0 -24 -8
-32 -26 -25 -22 8 -17 43 6 43 13 0 20 -7 20 -18z m110 -7 c0 -16 -6 -25 -15
-25 -9 0 -15 9 -15 25 0 16 6 25 15 25 9 0 15 -9 15 -25z m130 7 c0 -24 -8
-32 -26 -25 -22 8 -17 43 6 43 13 0 20 -7 20 -18z m720 0 c0 -24 -8 -32 -26
-25 -22 8 -17 43 6 43 13 0 20 -7 20 -18z m960 0 c0 -24 -8 -32 -26 -25 -22 8
-17 43 6 43 13 0 20 -7 20 -18z m110 -7 c0 -16 -6 -25 -15 -25 -9 0 -15 9 -15
25 0 16 6 25 15 25 9 0 15 -9 15 -25z m130 7 c0 -24 -8 -32 -26 -25 -22 8 -17
43 6 43 13 0 20 -7 20 -18z m110 -7 c0 -16 -6 -25 -15 -25 -9 0 -15 9 -15 25
0 16 6 25 15 25 9 0 15 -9 15 -25z m130 7 c0 -24 -8 -32 -26 -25 -22 8 -17 43
6 43 13 0 20 -7 20 -18z m3120 0 c0 -24 -8 -32 -26 -25 -22 8 -17 43 6 43 13
0 20 -7 20 -18z m960 0 c0 -24 -8 -32 -26 -25 -22 8 -17 43 6 43 13 0 20 -7
20 -18z m-7270 -67 c0 -16 -6 -25 -15 -25 -9 0 -15 9 -15 25 0 16 6 25 15 25
9 0 15 -9 15 -25z m130 -1 c0 -31 -23 -28 -28 4 -2 15 2 22 12 22 11 0 16 -9
16 -26z m110 1 c0 -16 -6 -25 -15 -25 -9 0 -15 9 -15 25 0 16 6 25 15 25 9 0
15 -9 15 -25z m130 -1 c0 -31 -23 -28 -28 4 -2 15 2 22 12 22 11 0 16 -9 16
-26z m350 1 c0 -16 -6 -25 -15 -25 -9 0 -15 9 -15 25 0 16 6 25 15 25 9 0 15
-9 15 -25z m130 -1 c0 -31 -23 -28 -28 4 -2 15 2 22 12 22 11 0 16 -9 16 -26z
m110 1 c0 -16 -6 -25 -15 -25 -9 0 -15 9 -15 25 0 16 6 25 15 25 9 0 15 -9 15
-25z m130 -1 c0 -31 -23 -28 -28 4 -2 15 2 22 12 22 11 0 16 -9 16 -26z m590
1 c0 -16 -6 -25 -15 -25 -9 0 -15 9 -15 25 0 16 6 25 15 25 9 0 15 -9 15 -25z
m130 -1 c0 -31 -23 -28 -28 4 -2 15 2 22 12 22 11 0 16 -9 16 -26z m830 1 c0
-16 -6 -25 -15 -25 -9 0 -15 9 -15 25 0 16 6 25 15 25 9 0 15 -9 15 -25z m130
-1 c0 -31 -23 -28 -28 4 -2 15 2 22 12 22 11 0 16 -9 16 -26z m110 1 c0 -16
-6 -25 -15 -25 -9 0 -15 9 -15 25 0 16 6 25 15 25 9 0 15 -9 15 -25z m130 -1
c0 -31 -23 -28 -28 4 -2 15 2 22 12 22 11 0 16 -9 16 -26z m110 1 c0 -16 -6
-25 -15 -25 -9 0 -15 9 -15 25 0 16 6 25 15 25 9 0 15 -9 15 -25z m130 -1 c0
-31 -23 -28 -28 4 -2 15 2 22 12 22 11 0 16 -9 16 -26z m2990 1 c0 -16 -6 -25
-15 -25 -9 0 -15 9 -15 25 0 16 6 25 15 25 9 0 15 -9 15 -25z m130 -1 c0 -31
-23 -28 -28 4 -2 15 2 22 12 22 11 0 16 -9 16 -26z m830 1 c0 -16 -6 -25 -15
-25 -9 0 -15 9 -15 25 0 16 6 25 15 25 9 0 15 -9 15 -25z m130 -1 c0 -31 -23
-28 -28 4 -2 15 2 22 12 22 11 0 16 -9 16 -26z m-7390 -64 c0 -20 -5 -30 -15
-30 -10 0 -15 10 -15 30 0 20 5 30 15 30 10 0 15 -10 15 -30z m122 -16 c-8
-14 -10 -14 -21 0 -11 13 -11 19 0 32 11 14 13 14 21 0 5 -9 5 -23 0 -32z
m118 16 c0 -20 -5 -30 -15 -30 -10 0 -15 10 -15 30 0 20 5 30 15 30 10 0 15
-10 15 -30z m122 -16 c-8 -14 -10 -14 -21 0 -11 13 -11 19 0 32 11 14 13 14
21 0 5 -9 5 -23 0 -32z m480 0 c-8 -14 -10 -14 -21 0 -11 13 -11 19 0 32 11
14 13 14 21 0 5 -9 5 -23 0 -32z m118 16 c0 -20 -5 -30 -15 -30 -10 0 -15 10
-15 30 0 20 5 30 15 30 10 0 15 -10 15 -30z m122 -16 c-8 -14 -10 -14 -21 0
-11 13 -11 19 0 32 11 14 13 14 21 0 5 -9 5 -23 0 -32z m720 0 c-8 -14 -10
-14 -21 0 -11 13 -11 19 0 32 11 14 13 14 21 0 5 -9 5 -23 0 -32z m960 0 c-8
-14 -10 -14 -21 0 -11 13 -11 19 0 32 11 14 13 14 21 0 5 -9 5 -23 0 -32z
m118 16 c0 -20 -5 -30 -15 -30 -10 0 -15 10 -15 30 0 20 5 30 15 30 10 0 15
-10 15 -30z m122 -16 c-8 -14 -10 -14 -21 0 -11 13 -11 19 0 32 11 14 13 14
21 0 5 -9 5 -23 0 -32z m118 16 c0 -20 -5 -30 -15 -30 -10 0 -15 10 -15 30 0
20 5 30 15 30 10 0 15 -10 15 -30z m122 -16 c-8 -14 -10 -14 -21 0 -11 13 -11
19 0 32 11 14 13 14 21 0 5 -9 5 -23 0 -32z m3120 0 c-8 -14 -10 -14 -21 0
-11 13 -11 19 0 32 11 14 13 14 21 0 5 -9 5 -23 0 -32z m960 0 c-8 -14 -10
-14 -21 0 -11 13 -11 19 0 32 11 14 13 14 21 0 5 -9 5 -23 0 -32z m-7262 -49
c0 -16 -6 -25 -15 -25 -9 0 -15 9 -15 25 0 16 6 25 15 25 9 0 15 -9 15 -25z
m130 0 c0 -16 -6 -25 -15 -25 -15 0 -21 31 -8 43 13 14 23 6 23 -18z m110 0
c0 -16 -6 -25 -15 -25 -9 0 -15 9 -15 25 0 16 6 25 15 25 9 0 15 -9 15 -25z
m130 0 c0 -16 -6 -25 -15 -25 -15 0 -21 31 -8 43 13 14 23 6 23 -18z m350 0
c0 -16 -6 -25 -15 -25 -9 0 -15 9 -15 25 0 16 6 25 15 25 9 0 15 -9 15 -25z
m130 0 c0 -16 -6 -25 -15 -25 -15 0 -21 31 -8 43 13 14 23 6 23 -18z m110 0
c0 -16 -6 -25 -15 -25 -9 0 -15 9 -15 25 0 16 6 25 15 25 9 0 15 -9 15 -25z
m130 0 c0 -16 -6 -25 -15 -25 -15 0 -21 31 -8 43 13 14 23 6 23 -18z m590 0
c0 -16 -6 -25 -15 -25 -9 0 -15 9 -15 25 0 16 6 25 15 25 9 0 15 -9 15 -25z
m130 0 c0 -16 -6 -25 -15 -25 -15 0 -21 31 -8 43 13 14 23 6 23 -18z m830 0
c0 -16 -6 -25 -15 -25 -9 0 -15 9 -15 25 0 16 6 25 15 25 9 0 15 -9 15 -25z
m130 0 c0 -16 -6 -25 -15 -25 -15 0 -21 31 -8 43 13 14 23 6 23 -18z m110 0
c0 -16 -6 -25 -15 -25 -9 0 -15 9 -15 25 0 16 6 25 15 25 9 0 15 -9 15 -25z
m130 0 c0 -16 -6 -25 -15 -25 -15 0 -21 31 -8 43 13 14 23 6 23 -18z m110 0
c0 -16 -6 -25 -15 -25 -9 0 -15 9 -15 25 0 16 6 25 15 25 9 0 15 -9 15 -25z
m130 0 c0 -16 -6 -25 -15 -25 -15 0 -21 31 -8 43 13 14 23 6 23 -18z m2990 0
c0 -16 -6 -25 -15 -25 -9 0 -15 9 -15 25 0 16 6 25 15 25 9 0 15 -9 15 -25z
m130 0 c0 -16 -6 -25 -15 -25 -15 0 -21 31 -8 43 13 14 23 6 23 -18z m830 0
c0 -16 -6 -25 -15 -25 -9 0 -15 9 -15 25 0 16 6 25 15 25 9 0 15 -9 15 -25z
m130 0 c0 -16 -6 -25 -15 -25 -15 0 -21 31 -8 43 13 14 23 6 23 -18z m-7390
-60 c0 -16 -6 -25 -15 -25 -9 0 -15 9 -15 25 0 16 6 25 15 25 9 0 15 -9 15
-25z m130 -6 c0 -12 -7 -19 -20 -19 -22 0 -29 35 -7 43 18 6 27 -2 27 -24z
m110 6 c0 -16 -6 -25 -15 -25 -9 0 -15 9 -15 25 0 16 6 25 15 25 9 0 15 -9 15
-25z m130 -6 c0 -12 -7 -19 -20 -19 -22 0 -29 35 -7 43 18 6 27 -2 27 -24z
m350 6 c0 -16 -6 -25 -15 -25 -9 0 -15 9 -15 25 0 16 6 25 15 25 9 0 15 -9 15
-25z m130 -6 c0 -12 -7 -19 -20 -19 -22 0 -29 35 -7 43 18 6 27 -2 27 -24z
m110 6 c0 -16 -6 -25 -15 -25 -9 0 -15 9 -15 25 0 16 6 25 15 25 9 0 15 -9 15
-25z m130 -6 c0 -12 -7 -19 -20 -19 -22 0 -29 35 -7 43 18 6 27 -2 27 -24z
m590 6 c0 -16 -6 -25 -15 -25 -9 0 -15 9 -15 25 0 16 6 25 15 25 9 0 15 -9 15
-25z m130 -6 c0 -12 -7 -19 -20 -19 -22 0 -29 35 -7 43 18 6 27 -2 27 -24z
m830 6 c0 -16 -6 -25 -15 -25 -9 0 -15 9 -15 25 0 16 6 25 15 25 9 0 15 -9 15
-25z m130 -6 c0 -12 -7 -19 -20 -19 -22 0 -29 35 -7 43 18 6 27 -2 27 -24z
m110 6 c0 -16 -6 -25 -15 -25 -9 0 -15 9 -15 25 0 16 6 25 15 25 9 0 15 -9 15
-25z m130 -6 c0 -12 -7 -19 -20 -19 -22 0 -29 35 -7 43 18 6 27 -2 27 -24z
m110 6 c0 -16 -6 -25 -15 -25 -9 0 -15 9 -15 25 0 16 6 25 15 25 9 0 15 -9 15
-25z m130 -6 c0 -12 -7 -19 -20 -19 -22 0 -29 35 -7 43 18 6 27 -2 27 -24z
m2990 6 c0 -16 -6 -25 -15 -25 -9 0 -15 9 -15 25 0 16 6 25 15 25 9 0 15 -9
15 -25z m130 -6 c0 -12 -7 -19 -20 -19 -22 0 -29 35 -7 43 18 6 27 -2 27 -24z
m830 6 c0 -16 -6 -25 -15 -25 -9 0 -15 9 -15 25 0 16 6 25 15 25 9 0 15 -9 15
-25z m130 -6 c0 -12 -7 -19 -20 -19 -22 0 -29 35 -7 43 18 6 27 -2 27 -24z
m-7270 -59 c0 -11 -7 -20 -15 -20 -8 0 -15 9 -15 20 0 11 7 20 15 20 8 0 15
-9 15 -20z m130 0 c0 -11 -7 -20 -15 -20 -8 0 -15 9 -15 20 0 11 7 20 15 20 8
0 15 -9 15 -20z m110 0 c0 -11 -7 -20 -15 -20 -8 0 -15 9 -15 20 0 11 7 20 15
20 8 0 15 -9 15 -20z m130 0 c0 -11 -7 -20 -15 -20 -8 0 -15 9 -15 20 0 11 7
20 15 20 8 0 15 -9 15 -20z m350 0 c0 -11 -7 -20 -15 -20 -8 0 -15 9 -15 20 0
11 7 20 15 20 8 0 15 -9 15 -20z m130 0 c0 -11 -7 -20 -15 -20 -8 0 -15 9 -15
20 0 11 7 20 15 20 8 0 15 -9 15 -20z m110 0 c0 -11 -7 -20 -15 -20 -8 0 -15
9 -15 20 0 11 7 20 15 20 8 0 15 -9 15 -20z m130 0 c0 -11 -7 -20 -15 -20 -8
0 -15 9 -15 20 0 11 7 20 15 20 8 0 15 -9 15 -20z m590 0 c0 -11 -7 -20 -15
-20 -8 0 -15 9 -15 20 0 11 7 20 15 20 8 0 15 -9 15 -20z m130 0 c0 -11 -7
-20 -15 -20 -8 0 -15 9 -15 20 0 11 7 20 15 20 8 0 15 -9 15 -20z m830 0 c0
-11 -7 -20 -15 -20 -8 0 -15 9 -15 20 0 11 7 20 15 20 8 0 15 -9 15 -20z m130
0 c0 -11 -7 -20 -15 -20 -8 0 -15 9 -15 20 0 11 7 20 15 20 8 0 15 -9 15 -20z
m110 0 c0 -11 -7 -20 -15 -20 -8 0 -15 9 -15 20 0 11 7 20 15 20 8 0 15 -9 15
-20z m130 0 c0 -11 -7 -20 -15 -20 -8 0 -15 9 -15 20 0 11 7 20 15 20 8 0 15
-9 15 -20z m110 0 c0 -11 -7 -20 -15 -20 -8 0 -15 9 -15 20 0 11 7 20 15 20 8
0 15 -9 15 -20z m130 0 c0 -11 -7 -20 -15 -20 -8 0 -15 9 -15 20 0 11 7 20 15
20 8 0 15 -9 15 -20z m2990 0 c0 -11 -7 -20 -15 -20 -8 0 -15 9 -15 20 0 11 7
20 15 20 8 0 15 -9 15 -20z m130 0 c0 -11 -7 -20 -15 -20 -8 0 -15 9 -15 20 0
11 7 20 15 20 8 0 15 -9 15 -20z m830 0 c0 -11 -7 -20 -15 -20 -8 0 -15 9 -15
20 0 11 7 20 15 20 8 0 15 -9 15 -20z m130 0 c0 -11 -7 -20 -15 -20 -8 0 -15
9 -15 20 0 11 7 20 15 20 8 0 15 -9 15 -20z m-7390 -65 c0 -16 -6 -25 -15 -25
-9 0 -15 9 -15 25 0 16 6 25 15 25 9 0 15 -9 15 -25z m127 -9 c-4 -9 -13 -13
-22 -10 -18 7 -20 31 -2 37 17 6 31 -9 24 -27z m113 9 c0 -16 -6 -25 -15 -25
-9 0 -15 9 -15 25 0 16 6 25 15 25 9 0 15 -9 15 -25z m127 -9 c-4 -9 -13 -13
-22 -10 -18 7 -20 31 -2 37 17 6 31 -9 24 -27z m353 9 c0 -16 -6 -25 -15 -25
-9 0 -15 9 -15 25 0 16 6 25 15 25 9 0 15 -9 15 -25z m127 -9 c-4 -9 -13 -13
-22 -10 -18 7 -20 31 -2 37 17 6 31 -9 24 -27z m113 9 c0 -16 -6 -25 -15 -25
-9 0 -15 9 -15 25 0 16 6 25 15 25 9 0 15 -9 15 -25z m127 -9 c-4 -9 -13 -13
-22 -10 -18 7 -20 31 -2 37 17 6 31 -9 24 -27z m593 9 c0 -16 -6 -25 -15 -25
-9 0 -15 9 -15 25 0 16 6 25 15 25 9 0 15 -9 15 -25z m127 -9 c-4 -9 -13 -13
-22 -10 -18 7 -20 31 -2 37 17 6 31 -9 24 -27z m833 9 c0 -16 -6 -25 -15 -25
-9 0 -15 9 -15 25 0 16 6 25 15 25 9 0 15 -9 15 -25z m127 -9 c-4 -9 -13 -13
-22 -10 -18 7 -20 31 -2 37 17 6 31 -9 24 -27z m113 9 c0 -16 -6 -25 -15 -25
-9 0 -15 9 -15 25 0 16 6 25 15 25 9 0 15 -9 15 -25z m127 -9 c-4 -9 -13 -13
-22 -10 -18 7 -20 31 -2 37 17 6 31 -9 24 -27z m113 9 c0 -16 -6 -25 -15 -25
-9 0 -15 9 -15 25 0 16 6 25 15 25 9 0 15 -9 15 -25z m127 -9 c-4 -9 -13 -13
-22 -10 -18 7 -20 31 -2 37 17 6 31 -9 24 -27z m2993 9 c0 -16 -6 -25 -15 -25
-9 0 -15 9 -15 25 0 16 6 25 15 25 9 0 15 -9 15 -25z m127 -9 c-4 -9 -13 -13
-22 -10 -18 7 -20 31 -2 37 17 6 31 -9 24 -27z m833 9 c0 -16 -6 -25 -15 -25
-9 0 -15 9 -15 25 0 16 6 25 15 25 9 0 15 -9 15 -25z m127 -9 c-4 -9 -13 -13
-22 -10 -18 7 -20 31 -2 37 17 6 31 -9 24 -27z m-7267 -56 c0 -11 -7 -20 -15
-20 -8 0 -15 9 -15 20 0 11 7 20 15 20 8 0 15 -9 15 -20z m130 0 c0 -11 -7
-20 -15 -20 -8 0 -15 9 -15 20 0 11 7 20 15 20 8 0 15 -9 15 -20z m110 0 c0
-11 -7 -20 -15 -20 -8 0 -15 9 -15 20 0 11 7 20 15 20 8 0 15 -9 15 -20z m130
0 c0 -11 -7 -20 -15 -20 -8 0 -15 9 -15 20 0 11 7 20 15 20 8 0 15 -9 15 -20z
m350 0 c0 -11 -7 -20 -15 -20 -8 0 -15 9 -15 20 0 11 7 20 15 20 8 0 15 -9 15
-20z m130 0 c0 -11 -7 -20 -15 -20 -8 0 -15 9 -15 20 0 11 7 20 15 20 8 0 15
-9 15 -20z m110 0 c0 -11 -7 -20 -15 -20 -8 0 -15 9 -15 20 0 11 7 20 15 20 8
0 15 -9 15 -20z m130 0 c0 -11 -7 -20 -15 -20 -8 0 -15 9 -15 20 0 11 7 20 15
20 8 0 15 -9 15 -20z m590 0 c0 -11 -7 -20 -15 -20 -8 0 -15 9 -15 20 0 11 7
20 15 20 8 0 15 -9 15 -20z m130 0 c0 -11 -7 -20 -15 -20 -8 0 -15 9 -15 20 0
11 7 20 15 20 8 0 15 -9 15 -20z m830 0 c0 -11 -7 -20 -15 -20 -8 0 -15 9 -15
20 0 11 7 20 15 20 8 0 15 -9 15 -20z m130 0 c0 -11 -7 -20 -15 -20 -8 0 -15
9 -15 20 0 11 7 20 15 20 8 0 15 -9 15 -20z m110 0 c0 -11 -7 -20 -15 -20 -8
0 -15 9 -15 20 0 11 7 20 15 20 8 0 15 -9 15 -20z m130 0 c0 -11 -7 -20 -15
-20 -8 0 -15 9 -15 20 0 11 7 20 15 20 8 0 15 -9 15 -20z m110 0 c0 -11 -7
-20 -15 -20 -8 0 -15 9 -15 20 0 11 7 20 15 20 8 0 15 -9 15 -20z m130 0 c0
-11 -7 -20 -15 -20 -8 0 -15 9 -15 20 0 11 7 20 15 20 8 0 15 -9 15 -20z
m2990 0 c0 -11 -7 -20 -15 -20 -8 0 -15 9 -15 20 0 11 7 20 15 20 8 0 15 -9
15 -20z m130 0 c0 -11 -7 -20 -15 -20 -8 0 -15 9 -15 20 0 11 7 20 15 20 8 0
15 -9 15 -20z m830 0 c0 -11 -7 -20 -15 -20 -8 0 -15 9 -15 20 0 11 7 20 15
20 8 0 15 -9 15 -20z m130 0 c0 -11 -7 -20 -15 -20 -8 0 -15 9 -15 20 0 11 7
20 15 20 8 0 15 -9 15 -20z"/>
<path d="M2070 1475 l0 -125 120 0 120 0 0 125 0 125 -120 0 -120 0 0 -125z"/>
<path d="M7350 1475 l0 -125 120 0 120 0 0 125 0 125 -120 0 -120 0 0 -125z"/>
</g>
</svg>
